<svg width="24" height="24" viewBox="0 0 24 24" fill="none" xmlns="http://www.w3.org/2000/svg">
<g clip-path="url(#clip0_2110_30)">
<path d="M2.74182 23.9054C2.29276 23.7871 1.90519 23.6129 1.54772 23.369C1.24604 23.163 0.805037 22.7372 0.637318 22.49C0.432474 22.1879 0.197068 21.6708 0.101068 21.3121C0.00319316 20.9462 0.00169317 20.8005 -0.000181832 12.0183C-0.00186933 3.28049 9.94243e-05 3.0883 0.0960057 2.71283C0.435287 1.38486 1.48576 0.37452 2.84063 0.07302C3.23016 -0.013605 20.632 -0.0286987 21.0522 0.0570825C22.1899 0.289864 23.0841 0.973958 23.6015 2.00755C24.0128 2.82927 23.9761 1.92505 23.9949 11.6811C24.0069 17.8885 23.9959 20.4946 23.9563 20.8192C23.7711 22.3385 22.725 23.5169 21.2198 23.9019C20.8346 24.0004 20.7007 24.0019 11.9583 23.9991C3.50541 23.9966 3.07135 23.9922 2.74182 23.9054Z" fill="#F06A35"/>
<path d="M15.4069 19.357C16.4822 19.2104 17.3249 18.7793 18.1154 17.9717C18.6872 17.3875 19.0452 16.7551 19.2792 15.9158C19.3763 15.5671 19.3845 15.3974 19.4023 13.3503C19.4158 11.8052 19.4045 11.0816 19.3643 10.899C19.306 10.6341 19.1407 10.3882 18.9521 10.2857C18.894 10.2541 18.5221 10.2139 18.1257 10.1964C17.4613 10.1669 17.3869 10.1539 17.1773 10.031C16.8447 9.83601 16.7531 9.62564 16.7521 9.05414C16.7504 7.96223 16.296 6.94851 15.3982 6.03351C14.7586 5.38176 14.045 4.94058 13.2307 4.69336C13.0357 4.63411 12.5991 4.61395 11.137 4.5968C8.84274 4.56961 8.33349 4.61667 7.55237 4.92773C6.11237 5.50129 5.07783 6.71001 4.7004 8.2597C4.62952 8.55079 4.61574 9.0172 4.59896 11.6969C4.57805 15.0539 4.60112 15.5468 4.81083 16.212C4.98427 16.7617 5.15912 17.0985 5.5193 17.5766C6.20555 18.4874 7.23399 19.145 8.26224 19.3308C8.75162 19.4192 14.7886 19.4414 15.4069 19.3571" fill="white"/>
<path d="M15.2171 14.1039C15.6139 14.4745 15.5302 15.1342 15.052 15.4051L14.5605 15.4851L11.6599 15.5186C9.70431 15.5369 9.11669 15.4984 8.99659 15.4508L8.99284 15.4492C8.75678 15.3463 8.53703 15.0608 8.49906 14.8075C8.46287 14.5662 8.58419 14.2346 8.77 14.0664L8.81134 14.0304C8.99453 13.8799 9.20528 13.8529 10.9334 13.8468L12.9318 13.8447C14.9521 13.8462 14.9698 13.873 15.2171 14.1039ZM12.3696 8.63345C12.6777 8.78908 12.8116 9.00845 12.8116 9.35786C12.8116 9.66123 12.6953 9.87723 12.4371 10.0514L12.3871 10.0834C12.2614 10.1584 12.1382 10.1714 11.1645 10.179L10.5361 10.1826C9.75709 10.1842 9.15747 10.1679 9.06165 10.1414C8.5119 9.98992 8.3065 9.2012 8.71056 8.7933L8.74815 8.75598C8.96444 8.54645 9.10206 8.5248 10.3693 8.52283L11.3242 8.52358C12.1312 8.52733 12.1956 8.54561 12.3696 8.63345Z" fill="#F06A35"/>
</g>
<defs>
<clipPath id="clip0_2110_30">
<rect width="24" height="24" fill="white"/>
</clipPath>
</defs>
</svg>
